<?xml version='1.0' encoding='utf-8'?>
<svg xmlns="http://www.w3.org/2000/svg" clip-rule="evenodd" fill-rule="evenodd" image-rendering="optimizeQuality" shape-rendering="geometricPrecision" text-rendering="geometricPrecision" version="1.1" viewBox="0 0 9144 9144"> <defs> <style type="text/css">.fil0 {fill:white} .fil1 {fill:#F16528;fill-rule:nonzero}</style> </defs> <polygon class="fil0" points="0 0 9144 0 9144 9144 0 9144"/> <path class="fil1" d="m2815 2455h3514c40 0 73 33 73 74 0 3 0 6-1 9l-286 3581c-3 32-24 57-53 65l-1467 501c-15 5-32 5-46 0-491-164-981-335-1470-502-29-10-48-35-50-64l-287-3585c-3-40 27-75 68-78l5-1zm1380 2754v-168c0-41-33-73-73-73h-431c-40 0-73 32-73 73v537c0 34 24 63 56 71l903 284c18 6 37 4 53-4l832-341c26-11 42-35 45-61l117-1334c3-40-26-75-67-79h-1472l-19-359h1551c40 0 73-33 73-73v-430c0-41-33-73-73-73h-2082c-40 0-73 32-73 73l1 9 71 1360c2 39 35 69 73 69v1h1394l-42 480-383 158-381-120zm-147 53m1107-645c0-40-33-73-74-73h-1404l-65-1219h1932v284h-1559c-40 2-71 36-69 77l26 500v1c0 41 33 73 73 73h1456l-106 1210-770 316-830-262v-410h283v148c0 31 21 60 52 70l457 144c16 5 33 4 50-2l443-182c28-9 49-33 51-64l53-603 1-8z"/> </svg>